# xmcd CD database file
# Copyright (C) 1993-1998 Ti Kan
#
# Track frame offsets:
#  150
#  15747
#  28762
#  45485
#  66190
#  84057
#  102110
#  118872
#  137392
#  149292
#  168662
#  186342
#
# Disc length: 2710 seconds
#
# Revision: 1
# Processed by: cddbd v1.4b41PL1 Copyright (c) Steve Scherf et al.
# Submitted via: CDWizzard Release:4.35
#
DISCID=9c0a940c
DTITLE=Little Texas - Greatest Hits
DYEAR=1900
DGENRE=
TTITLE0=God Bless Texas
TTITLE1=Some Guys Have All The Love
TTITLE2=You And Forever Me
TTITLE3=Amy's Back In Austin
TTITLE4=What Might Have Been
TTITLE5=First Time For Everything
TTITLE6=Kick A Little
TTITLE7=My Love
TTITLE8=Life Goes On
TTITLE9=Peaceful Easy Feeling
TTITLE10=I'd Rather Miss You
TTITLE11=Country Crazy
EXTD=
EXTT0=
EXTT1=
EXTT2=
EXTT3=
EXTT4=
EXTT5=
EXTT6=
EXTT7=
EXTT8=
EXTT9=
EXTT10=
EXTT11=
PLAYORDER=
